<?xml version="1.0" standalone="no"?>
<!DOCTYPE svg PUBLIC "-//W3C//DTD SVG 20010904//EN"
 "http://www.w3.org/TR/2001/REC-SVG-20010904/DTD/svg10.dtd">
<svg version="1.0" xmlns="http://www.w3.org/2000/svg"
 width="75.00px" height="75.00px" viewBox="0 0 50.0 50.0"
 preserveAspectRatio="xMidYMid meet">

<g transform="translate(0.000000,50.000000) scale(0.01,-0.01)"
stroke="none">
<path d="M1256 3750 l-36 -32 0 -127 c0 -85 4 -131 12 -139 8 -8 54 -12 140
-12 l127 0 31 30 30 29 0 123 c0 68 -5 130 -10 138 -7 12 -37 16 -133 18
l-125 4 -36 -32z"/>
<path d="M2635 3734 c-185 -102 -576 -333 -597 -353 -27 -25 -27 -29 -28 -143
l0 -118 138 0 c191 0 182 8 182 -176 l0 -144 30 0 c20 0 30 5 30 15 0 8 7 15
15 15 12 0 15 23 17 123 l3 122 189 3 c130 2 193 -1 202 -9 11 -9 14 -53 14
-205 l0 -194 -120 0 c-103 0 -120 -2 -120 -16 0 -9 -9 -18 -20 -21 -17 -5 -20
-15 -22 -97 l-3 -91 -92 -3 c-74 -2 -93 -6 -93 -17 0 -8 -7 -15 -15 -15 -12 0
-15 -14 -15 -70 l0 -70 -70 0 c-56 0 -70 -3 -70 -15 0 -8 -7 -15 -15 -15 -12
0 -15 -19 -15 -115 l0 -115 -190 0 c-220 0 -210 -5 -210 104 l0 66 -65 0 c-51
0 -65 -3 -65 -15 0 -8 -7 -15 -15 -15 -12 0 -15 -19 -15 -115 0 -122 13 -167
56 -207 18 -15 866 -508 946 -549 51 -26 118 -24 176 5 150 77 923 533 955
564 82 79 78 40 75 686 l-3 574 -30 42 c-26 36 -96 80 -509 318 -468 270 -481
276 -540 279 -43 2 -70 -2 -91 -13z m170 -1403 c78 -35 115 -103 115 -211 0
-75 -15 -124 -51 -165 -81 -92 -270 -84 -335 14 -85 130 -34 333 94 371 49 15
135 10 177 -9z m476 -26 c61 -44 84 -93 84 -185 0 -102 -28 -154 -104 -192
-50 -25 -65 -28 -163 -28 l-108 0 0 221 0 221 124 -4 c120 -3 126 -4 167 -33z
m269 -185 l0 -220 -55 0 -55 0 0 220 0 220 55 0 55 0 0 -220z"/>
<path d="M2684 2262 c-55 -8 -89 -92 -74 -184 10 -67 41 -98 97 -98 77 0 111
59 101 171 -8 81 -54 122 -124 111z"/>
<path d="M3100 2120 l0 -143 46 6 c80 9 124 78 109 174 -9 65 -40 94 -103 101
l-52 5 0 -143z"/>
<path d="M1561 3439 l-31 -31 0 -174 0 -174 -81 0 c-74 0 -83 -2 -110 -27 -27
-26 -29 -32 -29 -108 0 -50 5 -86 12 -93 7 -7 44 -12 96 -12 78 0 86 2 113 27
27 26 29 32 29 110 l0 83 174 0 c170 0 176 1 200 24 l26 23 0 180 c0 126 -4
183 -12 191 -8 8 -64 12 -184 12 l-172 0 -31 -31z"/>
<path d="M1957 3029 c-26 -30 -27 -34 -27 -155 l0 -124 -104 0 -105 0 -30 -32
c-30 -33 -31 -35 -31 -140 l0 -108 -80 0 c-76 0 -83 -2 -105 -27 -21 -25 -24
-38 -25 -108 0 -50 5 -86 12 -93 7 -7 42 -12 88 -12 70 0 79 2 108 28 31 28
32 31 32 110 l0 82 110 0 c107 0 112 1 135 26 23 25 25 34 25 135 l0 109 133
0 c132 1 132 1 160 29 l28 28 -3 139 -3 139 -145 3 -145 3 -28 -32z"/>
<path d="M2507 3001 c-26 -28 -27 -33 -27 -140 l0 -111 -84 0 c-83 0 -86 -1
-115 -32 -29 -31 -31 -37 -31 -115 l0 -83 -60 0 c-54 0 -64 -3 -85 -27 -20
-23 -24 -39 -25 -85 l0 -58 -105 0 c-101 0 -105 -1 -130 -27 -25 -27 -25 -32
-23 -143 l3 -115 114 -3 114 -3 29 31 c27 30 28 36 28 131 l0 99 53 0 c45 0
59 5 85 28 29 26 32 34 32 90 l0 62 84 0 c75 0 88 3 110 24 24 21 26 30 26
110 l0 86 113 0 c104 1 114 2 140 25 27 24 27 26 27 143 0 78 -4 122 -12 130
-8 8 -50 12 -123 12 -109 0 -110 0 -138 -29z"/>
<path d="M1671 2983 c-36 -14 -60 -58 -61 -108 0 -28 5 -56 12 -63 8 -8 47
-12 108 -12 92 0 97 1 123 28 23 24 27 37 27 85 0 45 -4 58 -19 67 -20 10
-165 13 -190 3z"/>
<path d="M1302 2610 c-19 -25 -23 -39 -20 -92 l3 -63 69 -3 c66 -3 70 -2 98
28 23 26 28 40 28 84 0 28 -5 57 -12 64 -7 7 -39 12 -77 11 -61 0 -68 -3 -89
-29z"/>
</g>
</svg>
